<svg xmlns="http://www.w3.org/2000/svg" width="2497.002" height="1476.809" viewBox="0 0 2497.002 1476.809">
  <path id="background_illu" d="M-7316.207-2823.69a7.264,7.264,0,0,1-7.255-7.256,7.265,7.265,0,0,1,7.255-7.257,7.266,7.266,0,0,1,7.257,7.257A7.265,7.265,0,0,1-7316.207-2823.69Zm7.917-55.062a15.07,15.07,0,0,1-10.728-4.444,15.072,15.072,0,0,1-4.444-10.729,15.07,15.07,0,0,1,4.444-10.728,15.07,15.07,0,0,1,10.728-4.444,15.07,15.07,0,0,1,10.729,4.444,15.07,15.07,0,0,1,4.444,10.728,15.072,15.072,0,0,1-4.444,10.729A15.072,15.072,0,0,1-7308.29-2878.753Zm29.933-62.969a28.734,28.734,0,0,1-10.785-2.074,27.729,27.729,0,0,1-8.806-5.655,26.266,26.266,0,0,1-5.937-8.388,25.141,25.141,0,0,1-2.177-10.27,25.151,25.151,0,0,1,2.177-10.272,26.265,26.265,0,0,1,5.938-8.387,27.722,27.722,0,0,1,8.806-5.656,28.734,28.734,0,0,1,10.785-2.074,28.725,28.725,0,0,1,10.784,2.074,27.718,27.718,0,0,1,8.807,5.656,26.279,26.279,0,0,1,5.938,8.387,25.151,25.151,0,0,1,2.177,10.272,25.141,25.141,0,0,1-2.177,10.27,26.277,26.277,0,0,1-5.938,8.388,27.736,27.736,0,0,1-8.807,5.655A28.725,28.725,0,0,1-7278.356-2941.722ZM-5994-3007.308h0c-6.118-3.16-12.429-6.235-18.756-9.138a489.762,489.762,0,0,0-50.4-19.773,532.776,532.776,0,0,0-115.195-24.214c-40.587-3.967-83.479-6.95-127.485-8.868-41.332-1.806-84.677-2.722-128.831-2.722-65.694,0-134.513,2.015-204.545,5.988-61.808,3.5-124.555,8.526-186.5,14.927-54.193,5.6-106.359,12.1-155.05,19.322-42.569,6.311-80.672,12.936-110.19,19.159-7.369.461-14.539.694-21.312.694a240.584,240.584,0,0,1-38.577-2.886,154.869,154.869,0,0,1-31.445-8.388,110.146,110.146,0,0,1-24.841-13.488,94.98,94.98,0,0,1-18.769-18.178,100.632,100.632,0,0,1-9.2-14.144,116.524,116.524,0,0,1-7-15.848,160.235,160.235,0,0,1-8-36.348,268.167,268.167,0,0,1-.965-41.808,452.7,452.7,0,0,1,4.916-46.384c2.39-15.515,5.532-31.889,9.608-50.058,3.658-16.3,7.957-33.588,13.143-52.844,9.745-36.178,21.132-73.816,32.145-110.214l.03-.1.009-.03.011-.039.028-.089.191-.612.091-.31.022-.065.137-.447.006-.024.043-.143.009-.028.035-.117c9.827-32.5,19.989-66.114,28.967-98.69,10.2-37.021,17.629-68.262,22.7-95.51,2.931-15.7,5.168-30.595,6.65-44.259a376.455,376.455,0,0,0,2.361-41.047,237.588,237.588,0,0,0-2.789-37.177,153.778,153.778,0,0,0-8.8-32.648,251.015,251.015,0,0,0-21.232-41.166,300.887,300.887,0,0,0-29.078-38.264,378.243,378.243,0,0,0-36.256-35.387,484.727,484.727,0,0,0-42.784-32.554c-58.419-39.718-133.464-74.211-223.049-102.52-41.642-13.163-86.53-24.984-133.418-35.135-45.164-9.776-92.591-18.105-140.965-24.754-46.908-6.448-95.086-11.376-143.2-14.65-47.134-3.2-94.285-4.82-140.142-4.82-48.792,0-96.215,1.831-140.95,5.441a1228.832,1228.832,0,0,0-124.785,16.1c-38.667,7.2-73.013,16.083-102.084,26.413-29.309,10.413-53.37,22.333-71.518,35.432V-4300.5h2497ZM-7095.108-3970.7a19.284,19.284,0,0,0-7.255,1.4,18.684,18.684,0,0,0-5.926,3.8,17.612,17.612,0,0,0-3.993,5.643,16.9,16.9,0,0,0-1.467,6.908,16.912,16.912,0,0,0,1.467,6.91,17.625,17.625,0,0,0,3.993,5.645,18.683,18.683,0,0,0,5.926,3.8,19.34,19.34,0,0,0,7.255,1.394,19.342,19.342,0,0,0,7.255-1.394,18.671,18.671,0,0,0,5.925-3.8,17.63,17.63,0,0,0,4-5.645,16.936,16.936,0,0,0,1.465-6.91,16.915,16.915,0,0,0-1.465-6.908,17.667,17.667,0,0,0-4-5.643,18.667,18.667,0,0,0-5.925-3.8A19.287,19.287,0,0,0-7095.108-3970.7Zm-91-96.311a29.534,29.534,0,0,0-11.574,2.337,29.634,29.634,0,0,0-9.452,6.374,29.589,29.589,0,0,0-6.372,9.449,29.531,29.531,0,0,0-2.337,11.574,29.548,29.548,0,0,0,2.337,11.574,29.628,29.628,0,0,0,6.372,9.452,29.665,29.665,0,0,0,9.452,6.372,29.538,29.538,0,0,0,11.574,2.337,29.555,29.555,0,0,0,11.577-2.337,29.633,29.633,0,0,0,9.449-6.372,29.633,29.633,0,0,0,6.372-9.452,29.532,29.532,0,0,0,2.337-11.574,29.516,29.516,0,0,0-2.337-11.574,29.554,29.554,0,0,0-6.372-9.449,29.619,29.619,0,0,0-9.449-6.374A29.551,29.551,0,0,0-7186.1-4067.006Zm122.23-50.032a10.22,10.22,0,0,0-10.209,10.209,10.218,10.218,0,0,0,10.209,10.2,10.217,10.217,0,0,0,10.207-10.2A10.219,10.219,0,0,0-7063.874-4117.038Z" transform="translate(8491 4300.5)" fill="#fff"/>
</svg>
