<svg xmlns="http://www.w3.org/2000/svg" width="1920" height="1145.254" viewBox="0 0 1920 1145.254">
  <g id="Gruppe_23" data-name="Gruppe 23" transform="translate(0.004 0.001)">
    <path id="Differenzmenge_8" data-name="Differenzmenge 8" d="M-20155.5-7698.346a5.506,5.506,0,0,1-5.5-5.5,5.505,5.505,0,0,1,5.5-5.5,5.511,5.511,0,0,1,5.51,5.5A5.512,5.512,0,0,1-20155.5-7698.346Zm5.508-37.241a11.431,11.431,0,0,1-8.139-3.37,11.416,11.416,0,0,1-3.369-8.13,11.448,11.448,0,0,1,3.369-8.13,11.463,11.463,0,0,1,8.139-3.361,11.452,11.452,0,0,1,8.131,3.361,11.455,11.455,0,0,1,3.371,8.13,11.425,11.425,0,0,1-3.371,8.13A11.45,11.45,0,0,1-20150-7735.587Zm24.494-38.989a21.725,21.725,0,0,1-8.17-1.565,21.062,21.062,0,0,1-6.676-4.283,19.828,19.828,0,0,1-4.5-6.357,19,19,0,0,1-1.654-7.781,19,19,0,0,1,1.654-7.78,19.842,19.842,0,0,1,4.5-6.357,21.065,21.065,0,0,1,6.676-4.284,21.747,21.747,0,0,1,8.17-1.573,21.846,21.846,0,0,1,8.178,1.573,21.182,21.182,0,0,1,6.676,4.284,20,20,0,0,1,4.5,6.357,19.05,19.05,0,0,1,1.652,7.78,19.062,19.062,0,0,1-1.652,7.781,20.036,20.036,0,0,1-4.5,6.357,21.169,21.169,0,0,1-6.676,4.283A21.817,21.817,0,0,1-20125.5-7774.576Zm134.928-40.491a278.123,278.123,0,0,1-41.969-2.8,146.329,146.329,0,0,1-17.557-3.759,90.643,90.643,0,0,1-14.854-5.555,114.432,114.432,0,0,1-21.338-13.455,115.816,115.816,0,0,1-17.23-17.078,137.029,137.029,0,0,1-23.088-42.367c-8.477-24.657-11.672-53.4-9.24-83.128a234.732,234.732,0,0,1,6.883-40.516,191.767,191.767,0,0,1,13.027-35.588c2.127-4.355,5.029-9.932,8.1-15.834l.135-.26.057-.106c8.373-16.084,19.842-38.112,31.605-64.568,6.428-14.449,12.311-28.839,17.488-42.771,6.01-16.194,11.248-32.272,15.568-47.787,22.521-80.962,21.816-152.429-2.094-212.414a245.7,245.7,0,0,0-12.252-26.105,246.947,246.947,0,0,0-15.9-25.367,260.258,260.258,0,0,0-19.8-24.439,289.54,289.54,0,0,0-24.016-23.325,332.064,332.064,0,0,0-28.516-22.021c-10.377-7.168-21.584-14.083-33.307-20.552-12.031-6.632-24.939-12.981-38.369-18.875-13.752-6.03-28.465-11.761-43.732-17.03-129-44.492-268.229-67.051-413.822-67.051a1427.571,1427.571,0,0,0-146.6,7.605c-40.225,4.158-80.152,10.027-118.67,17.444-37.225,7.163-65.928,14.421-83.453,19.248-21.27,5.862-35.371,10.677-40.984,13.018l0-213.1h1920v1024.71a142.879,142.879,0,0,0-24.318-13.845,243.259,243.259,0,0,0-29.969-11.118c-10.518-3.192-22.164-6.106-34.617-8.662-11.869-2.442-24.75-4.624-38.283-6.485-24.668-3.405-52.779-5.932-83.557-7.51-26.348-1.339-55.371-2.019-86.268-2.019-54.094,0-105.621,2.043-143.242,3.535h-.07c-17.49.7-34.012,1.355-45.975,1.582-13.375.254-31.459,2.2-56.91,6.127-22.906,3.527-48.865,8.207-76.35,13.161l-.518.093c-38.023,6.849-77.344,13.931-116.33,19.489C-19925.621-7818.166-19961.492-7815.067-19990.574-7815.067Z" transform="translate(21064.5 8843.599)" fill="#fff"/>
    <circle id="Ellipse_29" data-name="Ellipse 29" cx="33.5" cy="33.5" r="33.5" transform="translate(1039 254.741)" fill="#c20008"/>
    <ellipse id="Ellipse_30" data-name="Ellipse 30" cx="21" cy="20" rx="21" ry="20" transform="translate(1106 327.741)" fill="#c20008"/>
    <circle id="Ellipse_31" data-name="Ellipse 31" cx="11.5" cy="11.5" r="11.5" transform="translate(1148 220.741)" fill="#c20008"/>
  </g>
</svg>
