<svg xmlns="http://www.w3.org/2000/svg" width="1919.998" height="1545.415" viewBox="0 0 1919.998 1545.415">
  <path id="background_illu" d="M-7585.079-2755.084a8.183,8.183,0,0,1-8.173-8.174,8.184,8.184,0,0,1,8.173-8.176,8.185,8.185,0,0,1,8.176,8.176A8.184,8.184,0,0,1-7585.079-2755.084Zm8.919-56.3a16.98,16.98,0,0,1-12.086-5.006,16.98,16.98,0,0,1-5.006-12.086,16.984,16.984,0,0,1,5.006-12.088,16.98,16.98,0,0,1,12.086-5.007,16.978,16.978,0,0,1,12.086,5.007,16.984,16.984,0,0,1,5.007,12.088,16.98,16.98,0,0,1-5.007,12.086A16.978,16.978,0,0,1-7576.16-2811.38Zm27.5-64.028a32.373,32.373,0,0,1-12.151-2.336,31.245,31.245,0,0,1-9.922-6.371,29.6,29.6,0,0,1-6.69-9.45,28.337,28.337,0,0,1-2.453-11.573,28.335,28.335,0,0,1,2.453-11.572,29.587,29.587,0,0,1,6.69-9.449,31.246,31.246,0,0,1,9.922-6.371,32.374,32.374,0,0,1,12.151-2.336,32.364,32.364,0,0,1,12.149,2.336,31.254,31.254,0,0,1,9.922,6.371,29.6,29.6,0,0,1,6.689,9.449,28.332,28.332,0,0,1,2.453,11.572,28.334,28.334,0,0,1-2.453,11.573,29.6,29.6,0,0,1-6.689,9.45,31.252,31.252,0,0,1-9.922,6.371A32.364,32.364,0,0,1-7548.661-2875.407ZM-6571-2948.262h0c-4.739-3.326-9.591-6.541-14.422-9.553a325.841,325.841,0,0,0-38.75-20.678,318.307,318.307,0,0,0-88.577-25.316c-31.157-4.143-64.137-7.263-98.026-9.276-31.768-1.886-65.1-2.842-99.061-2.842-50.532,0-103.448,2.106-157.277,6.259-47.507,3.661-95.756,8.913-143.406,15.608-41.656,5.855-81.768,12.652-119.221,20.2-32.733,6.6-62.031,13.53-84.727,20.036-5.652.482-11.166.726-16.388.726a137.232,137.232,0,0,1-29.664-3.019,95.313,95.313,0,0,1-24.18-8.77,81.457,81.457,0,0,1-19.1-14.1A90.19,90.19,0,0,1-7518.231-2998a114.623,114.623,0,0,1-7.073-14.791,146.661,146.661,0,0,1-5.384-16.572,219.965,219.965,0,0,1-6.148-38.007,380.336,380.336,0,0,1-.741-43.717c.536-14.828,1.808-31.146,3.78-48.5,1.827-16.157,4.243-33.279,7.385-52.342,2.815-17.048,6.121-35.123,10.108-55.258,7.484-37.791,16.22-77.058,24.668-115.032l0-.016.042-.187.011-.041,0-.013.021-.093.009-.041.019-.093.147-.64.071-.326.015-.067.106-.469.007-.024.032-.149,0-.017.047-.218c7.542-33.925,15.342-69.006,22.254-103.113,7.847-38.712,13.557-71.38,17.456-99.871,2.255-16.443,3.976-32.013,5.113-46.28,1.221-15.272,1.833-29.712,1.818-42.919a337.428,337.428,0,0,0-2.146-38.875,208.468,208.468,0,0,0-6.767-34.138,306.241,306.241,0,0,0-16.326-43.047,324.722,324.722,0,0,0-22.36-40.01,359.54,359.54,0,0,0-27.879-37,411.377,411.377,0,0,0-32.894-34.041c-44.923-41.532-102.626-77.6-171.509-107.2a915.988,915.988,0,0,0-102.591-36.738,1102.917,1102.917,0,0,0-108.388-25.885c-36.073-6.744-73.119-11.9-110.109-15.319-36.221-3.344-72.476-5.04-107.757-5.04a998.517,998.517,0,0,0-108.38,5.688,710.416,710.416,0,0,0-95.95,16.84c-29.72,7.521-56.13,16.813-78.5,27.618-22.538,10.889-41.039,23.354-54.989,37.052v-293.6h1920Zm-840-1007.375a21.757,21.757,0,0,0-8.176,1.572,21.009,21.009,0,0,0-6.673,4.285,19.923,19.923,0,0,0-4.5,6.358,19.089,19.089,0,0,0-1.649,7.784,19.09,19.09,0,0,0,1.649,7.785,19.928,19.928,0,0,0,4.5,6.358,21.014,21.014,0,0,0,6.673,4.286,21.775,21.775,0,0,0,8.176,1.571c11.58,0,21-8.972,21-20a19.086,19.086,0,0,0-1.651-7.784,19.932,19.932,0,0,0-4.5-6.358,21.024,21.024,0,0,0-6.673-4.285A21.752,21.752,0,0,0-7411-3955.637Zm-66-100.708a33.3,33.3,0,0,0-13.041,2.632,33.368,33.368,0,0,0-10.649,7.179,33.4,33.4,0,0,0-7.179,10.649,33.29,33.29,0,0,0-2.632,13.038,33.3,33.3,0,0,0,2.632,13.04,33.432,33.432,0,0,0,7.179,10.648,33.377,33.377,0,0,0,10.649,7.177,33.258,33.258,0,0,0,13.041,2.635,33.257,33.257,0,0,0,13.039-2.635,33.375,33.375,0,0,0,10.648-7.177,33.383,33.383,0,0,0,7.179-10.648,33.313,33.313,0,0,0,2.632-13.04,33.29,33.29,0,0,0-2.632-13.038,33.325,33.325,0,0,0-7.179-10.649,33.369,33.369,0,0,0-10.648-7.179A33.3,33.3,0,0,0-7477-4056.344Zm87-52.318a11.438,11.438,0,0,0-8.135,3.37,11.433,11.433,0,0,0-3.367,8.132,11.433,11.433,0,0,0,3.367,8.133,11.437,11.437,0,0,0,8.135,3.367,11.431,11.431,0,0,0,8.131-3.367,11.426,11.426,0,0,0,3.367-8.133,11.425,11.425,0,0,0-3.367-8.132A11.433,11.433,0,0,0-7390-4108.663Z" transform="translate(8490.998 4300.5)" fill="#fff"/>
</svg>
