<svg xmlns="http://www.w3.org/2000/svg" width="2497.001" height="1185.45" viewBox="0 0 2497.001 1185.45">
  <path id="background_illu" d="M-7315.286-3115.05a8.185,8.185,0,0,1-8.176-8.176,8.185,8.185,0,0,1,8.176-8.176,8.185,8.185,0,0,1,8.175,8.176A8.185,8.185,0,0,1-7315.286-3115.05Zm8.917-38.844a16.977,16.977,0,0,1-12.087-5.007,16.98,16.98,0,0,1-5.006-12.087,16.979,16.979,0,0,1,5.006-12.086,16.977,16.977,0,0,1,12.087-5.007,16.984,16.984,0,0,1,12.089,5.007,16.978,16.978,0,0,1,5.006,12.086,16.98,16.98,0,0,1-5.006,12.087A16.984,16.984,0,0,1-7306.369-3153.894Zm31.519-43.007a32.355,32.355,0,0,1-12.149-2.336,31.232,31.232,0,0,1-9.921-6.371,29.586,29.586,0,0,1-6.69-9.449,28.333,28.333,0,0,1-2.453-11.57,28.339,28.339,0,0,1,2.453-11.572,29.594,29.594,0,0,1,6.69-9.45,31.235,31.235,0,0,1,9.921-6.371,32.362,32.362,0,0,1,12.149-2.336,32.37,32.37,0,0,1,12.151,2.336,31.243,31.243,0,0,1,9.922,6.371,29.6,29.6,0,0,1,6.689,9.45,28.335,28.335,0,0,1,2.453,11.572,28.327,28.327,0,0,1-2.453,11.57,29.6,29.6,0,0,1-6.689,9.449,31.24,31.24,0,0,1-9.922,6.371A32.363,32.363,0,0,1-7274.85-3196.9ZM-5994-3266.6h0v0c-6.138-2.532-12.449-4.99-18.756-7.3-16.07-5.9-33.025-11.215-50.394-15.808a650.284,650.284,0,0,0-115.2-19.359c-40.539-3.168-83.431-5.553-127.485-7.09-41.327-1.443-84.672-2.175-128.831-2.175-65.68,0-134.5,1.61-204.545,4.786-61.83,2.8-124.577,6.819-186.5,11.937-54.167,4.476-106.333,9.673-155.05,15.446-42.575,5.049-80.678,10.345-110.19,15.318-7.325.369-14.495.556-21.31.556a299.655,299.655,0,0,1-38.579-2.307,186.333,186.333,0,0,1-31.445-6.706,121.161,121.161,0,0,1-24.843-10.784,89.1,89.1,0,0,1-18.767-14.532,81.145,81.145,0,0,1-9.2-11.31,84.8,84.8,0,0,1-7-12.67,106.694,106.694,0,0,1-8-29.06,171.767,171.767,0,0,1-.963-33.424,292.537,292.537,0,0,1,4.916-37.084c2.383-12.374,5.525-25.465,9.605-40.02,3.661-13.038,7.961-26.858,13.146-42.249,9.759-28.974,21.152-59.073,32.17-88.181l.013-.039.011-.03.03-.072.189-.489.093-.249.02-.052.137-.358.006-.017.043-.115.015-.041.013-.026.108-.285c9.805-25.941,19.944-52.765,28.874-78.666,10.205-29.6,17.631-54.582,22.7-76.359,2.936-12.577,5.172-24.483,6.647-35.385a240.881,240.881,0,0,0,2.364-32.816,152.77,152.77,0,0,0-2.789-29.724,104.323,104.323,0,0,0-8.8-26.1,189.92,189.92,0,0,0-21.234-32.91,255.057,255.057,0,0,0-29.078-30.593,353.711,353.711,0,0,0-36.256-28.292,488.592,488.592,0,0,0-42.784-26.026c-58.422-31.756-133.466-59.333-223.049-81.965-41.621-10.519-86.51-19.97-133.42-28.09-45.143-7.814-92.568-14.472-140.96-19.791-46.922-5.156-95.1-9.1-143.2-11.711-47.125-2.558-94.274-3.854-140.14-3.854-48.856,0-96.279,1.464-140.952,4.352-44.869,2.9-86.853,7.229-124.785,12.872-38.668,5.756-73.014,12.86-102.084,21.117-29.311,8.325-53.373,17.856-71.518,28.329V-4300.5h2497Zm-1098.75-770.223a21.72,21.72,0,0,0-8.171,1.571,20.941,20.941,0,0,0-6.676,4.286,19.879,19.879,0,0,0-4.5,6.357,19.081,19.081,0,0,0-1.649,7.785,19.085,19.085,0,0,0,1.649,7.785,19.907,19.907,0,0,0,4.5,6.356,21.015,21.015,0,0,0,6.676,4.287,21.779,21.779,0,0,0,8.171,1.571,21.809,21.809,0,0,0,8.176-1.571,21.045,21.045,0,0,0,6.675-4.287,19.912,19.912,0,0,0,4.5-6.356,19.03,19.03,0,0,0,1.652-7.785,19.025,19.025,0,0,0-1.652-7.785,19.88,19.88,0,0,0-4.5-6.357,21.032,21.032,0,0,0-6.675-4.286A21.765,21.765,0,0,0-7092.749-4036.822Zm-89.59-77a33.281,33.281,0,0,0-13.039,2.633,33.375,33.375,0,0,0-10.65,7.179,33.472,33.472,0,0,0-7.179,10.648,33.3,33.3,0,0,0-2.633,13.041,33.287,33.287,0,0,0,2.633,13.041,33.424,33.424,0,0,0,7.179,10.647,33.442,33.442,0,0,0,10.65,7.179,33.329,33.329,0,0,0,13.039,2.632,33.308,33.308,0,0,0,13.039-2.632,33.388,33.388,0,0,0,10.65-7.179,33.4,33.4,0,0,0,7.179-10.647,33.318,33.318,0,0,0,2.63-13.041,33.316,33.316,0,0,0-2.63-13.041,33.408,33.408,0,0,0-7.179-10.648,33.424,33.424,0,0,0-10.65-7.179A33.281,33.281,0,0,0-7182.339-4113.824Zm119.757-40a11.421,11.421,0,0,0-8.13,3.368,11.425,11.425,0,0,0-3.368,8.132,11.426,11.426,0,0,0,3.368,8.132,11.421,11.421,0,0,0,8.13,3.368,11.424,11.424,0,0,0,8.132-3.368,11.435,11.435,0,0,0,3.369-8.132,11.426,11.426,0,0,0-3.369-8.132A11.424,11.424,0,0,0-7062.582-4153.822Z" transform="translate(8491 4300.5)" fill="#fff"/>
</svg>
