<svg id="undraw_product_tour_re_8bai" xmlns="http://www.w3.org/2000/svg" width="673.315" height="333" viewBox="0 0 673.315 333">
  <ellipse id="Ellipse_1" data-name="Ellipse 1" cx="111.767" cy="6.134" rx="111.767" ry="6.134" transform="translate(288.24 215.657)" fill="#f0f0f0"/>
  <ellipse id="Ellipse_2" data-name="Ellipse 2" cx="37.256" cy="6.134" rx="37.256" ry="6.134" transform="translate(84.653 320.732)" fill="#f0f0f0"/>
  <path id="Pfad_65" data-name="Pfad 65" d="M1.231.082l4.5-.025-.483,82.01-4.5.025Z" transform="matrix(0.101, -0.995, 0.995, 0.101, 410.625, 14.539)" fill="#e6e6e6"/>
  <ellipse id="Ellipse_3" data-name="Ellipse 3" cx="7.893" cy="8.354" rx="7.893" ry="8.354" transform="translate(391.279)" fill="#e6e6e6"/>
  <path id="Pfad_66" data-name="Pfad 66" d="M1.231.082l4.5-.025-.483,82.01-4.5.025Z" transform="matrix(0.101, -0.995, 0.995, 0.101, 410.625, 39.075)" fill="#e4e4e4"/>
  <ellipse id="Ellipse_4" data-name="Ellipse 4" cx="7.893" cy="8.354" rx="7.893" ry="8.354" transform="translate(391.279 24.536)" fill="#e4e4e4"/>
  <path id="Pfad_67" data-name="Pfad 67" d="M1.231.082l4.5-.025-.483,82.01-4.5.025Z" transform="matrix(0.101, -0.995, 0.995, 0.101, 410.625, 63.611)" fill="#c20008"/>
  <ellipse id="Ellipse_5" data-name="Ellipse 5" cx="7.893" cy="8.354" rx="7.893" ry="8.354" transform="translate(391.279 49.072)" fill="#c20008"/>
  <path id="Pfad_1" data-name="Pfad 1" d="M19.924,161.729,64.9,125.6l-.367,70.343-42.4,37.024Z" transform="translate(-3.429 -40.771)" fill="#e4e4e4"/>
  <path id="Pfad_2" data-name="Pfad 2" d="M256.922,14.9,344.464,1.81l1.315,80.7L257.692,97.951Z" transform="translate(-76.547 -0.225)" fill="#c20008"/>
  <path id="Pfad_3" data-name="Pfad 3" d="M870.249,173.491v71.333L913.775,289.1l2.031-72.311Z" transform="translate(-254.529 -57.326)" fill="#c20008"/>
  <g id="Group_123" data-name="Group 123" transform="translate(615.982 71.719)">
    <path id="Path_1733" data-name="Path 1733" d="M1000.66,322.077V332.6l30.326,26.078,1.424-9.026Z" transform="translate(-1000.66 -322.077)" fill="#c20008"/>
  </g>
  <path id="Path_1735" data-name="Path 1735" d="M1001.14,342.677l-.48,10.533,57.333,57.16-.944-12.032Z" transform="translate(-384.678 -258.069)" fill="#e6e6e6"/>
  <path id="Path_1736" data-name="Path 1736" d="M1000.66,365v10.025l57.333,58.177V420.16Z" transform="translate(-384.678 -264.818)" fill="#e6e6e6"/>
  <path id="Pfad_4" data-name="Pfad 4" d="M148.455,438.611h-4.543l-2.162-18.548h6.705Z" transform="translate(-24.394 -119.081)" fill="#9e616a"/>
  <path id="Pfad_5" data-name="Pfad 5" d="M278.3,667.369h-14.65v-.2a5.876,5.876,0,0,1,5.7-6.035H278.3Z" transform="translate(-153.078 -343.177)" fill="#2f2e41"/>
  <path id="Pfad_6" data-name="Pfad 6" d="M166.631,433.368l-4.2,1.834-8.683-16.272,6.2-2.708Z" transform="translate(-26.459 -118.606)" fill="#9e616a"/>
  <path id="Pfad_7" data-name="Pfad 7" d="M299.807,661.059l-13.542,5.915-.071-.181a6.165,6.165,0,0,1,3.1-7.881h0l8.271-3.613Z" transform="translate(-156.884 -342.455)" fill="#2f2e41"/>
  <path id="Pfad_8" data-name="Pfad 8" d="M277.886,503.746s16.858,8.456,5.657,47.19l-.852,30.644L277.1,637.914l-9.09-.613-4.02-54.232-13.4-44.793,2.659-21.635Z" transform="translate(-150.831 -323.707)" fill="#2f2e41"/>
  <path id="Pfad_9" data-name="Pfad 9" d="M251.924,515.015l1.371-28.124c-9.323-16.57.233-26.036,1.009-26.763l8.542-13.2,7.474-2.172a9.421,9.421,0,0,1,8.608,1.787,10.653,10.653,0,0,1,3.846,8.345l-.335,46.081Z" transform="translate(-150.598 -288.996)" fill="#c20008"/>
  <path id="Pfad_10" data-name="Pfad 10" d="M142.984,381.814l9.394,41.24,10.765-4.631L148.555,381.1Z" transform="translate(-24.607 -114.26)" fill="#2f2e41"/>
  <path id="Pfad_11" data-name="Pfad 11" d="M254.4,538.513a4.915,4.915,0,0,0,2.677-3.146,5.254,5.254,0,0,0-.56-4.192L266.04,516.9l-7.936-.481-8.441,13.453a5.224,5.224,0,0,0-1.26,6.548,4.624,4.624,0,0,0,5.994,2.1Z" transform="translate(-150.344 -304.062)" fill="#9e616a"/>
  <path id="Pfad_12" data-name="Pfad 12" d="M128.1,240.892l4.164,31.1L120.5,295.433l9.843,6.521L147.3,275.419l-7.1-37.6Z" transform="translate(-20.737 -71.051)" fill="#c20008"/>
  <ellipse id="Ellipse_360" data-name="Ellipse 360" cx="12.568" cy="13.302" rx="12.568" ry="13.302" transform="translate(103.428 134.316)" fill="#9e616a"/>
  <path id="Pfad_13" data-name="Pfad 13" d="M286.149,470.588c.47-7.442,3.413-14.412,5.786-21.435s4.215-14.667,2.421-21.879a34.443,34.443,0,0,0-4.873-10.337c-3.926-6.026-8.931-11.629-15.417-14.169s-14.659-1.274-18.926,4.487a11.581,11.581,0,0,0-2.381,7.189,8.135,8.135,0,0,0,3.433,6.521c1.185.759,2.594,1.115,3.672,2.035s1.669,2.789.688,3.824l.392.2c3.515.8,5.476,5.019,5.446,8.824s-1.492,7.409-2.4,11.092-1.17,7.907.92,11c2.077,3.079,6.093,4.433,7.61,7.86,2.069,4.676-1.681,10.028-1.231,15.17.432,4.936,4.8,8.663,9.377,9.727s9.325.057,13.911-.949C288.339,486.291,285.68,478.03,286.149,470.588Z" transform="translate(-151.204 -278.008)" fill="#2f2e41"/>
  <path id="Pfad_14" data-name="Pfad 14" d="M642.687,396.543l.614-21.612-2.726-20.1-4.078.293-3.432,21.148,3.834,22.675a6.418,6.418,0,0,0,.095,7.358,5.6,5.6,0,0,0,6.7,1.961,6.169,6.169,0,0,0,3.652-6.261A6.014,6.014,0,0,0,642.687,396.543Z" transform="translate(-273.77 -260.783)" fill="#9e616a"/>
  <path id="Pfad_15" data-name="Pfad 15" d="M511.594,238.6l-11.432,51.225,8.614.648L525.284,240.9Z" transform="translate(-143.69 -69.813)" fill="#9e616a"/>
  <path id="Pfad_16" data-name="Pfad 16" d="M538.584,234.121l15.777,49.916L562,279.784,549.9,229.6Z" transform="translate(-154.588 -67.467)" fill="#9e616a"/>
  <path id="Pfad_17" data-name="Pfad 17" d="M641.625,407.274s-5.478,6.411,3.975,18.718l-12.256,67.951,9.107,3.505,16.558-45.567,14.9,39.433,11.591-5.258-15.833-60.064,1.759-15.3-4.377-4.281Z" transform="translate(-276.83 -279.699)" fill="#e4e4e4"/>
  <path id="Pfad_18" data-name="Pfad 18" d="M653.961,328.456s-16.576,6.874-14.92,17.389l4.077,41.568-4.194,14.415s27.97,4.755,33.085-.64l.976-45.7,1.832-18.065-8.86-3.793-2.21-3.47Z" transform="translate(-277.125 -254.237)" fill="#3f3d56"/>
  <path id="Pfad_19" data-name="Pfad 19" d="M510.785,120.652l-6.045,14.407,8.988,3.684Z" transform="translate(-143.785 -33.5)" fill="#3f3d56"/>
  <path id="Pfad_20" data-name="Pfad 20" d="M692.944,403.3l-7.29-41.189-11.6-1.025,3.269,20.677,7.9,23.4a6.435,6.435,0,0,0,.013,6.9,5.651,5.651,0,0,0,6.073,2.522,6.008,6.008,0,0,0,4.445-5.053A6.263,6.263,0,0,0,692.944,403.3Z" transform="translate(-286.089 -262.604)" fill="#9e616a"/>
  <path id="Pfad_21" data-name="Pfad 21" d="M666.347,343.719l6.688,20.1,12.947-1.81s2.836-18.6-6.447-23.322Z" transform="translate(-283.739 -254.52)" fill="#3f3d56"/>
  <path id="Path_1770" data-name="Path 1770" d="M672.67,309.324c-.337,17.206-25.377,14.268-22.059-2.636C653.166,293.236,673.011,295.627,672.67,309.324Z" transform="translate(-279.326 -242.97)" fill="#9e616a"/>
  <path id="Path_1784" data-name="Path 1784" d="M665.568,292.9c-7.85,1.417-20.008-1.915-19.77,11.094-.805,1.274-1.69,2.67-1.118,4.267,2.769,3.574,4.216,9.11,7.831,11.62,3.222-.025,7.428.451,9.588-2.524.918-2.44-.706-5.414.679-7.7,1.816-.613,3.588,1.847,4.3-1.657a4.889,4.889,0,0,1,1.847-4.46C671.764,300.093,669.827,293.743,665.568,292.9Z" transform="translate(-277.926 -241.731)" fill="#3f3d56"/>
  <path id="Pfad_22" data-name="Pfad 22" d="M627.562,517.3H641.1a8.89,8.89,0,0,1,8.627,9.13v.3H627.562Z" transform="translate(-272.786 -302.767)" fill="#2f2e41"/>
  <path id="Pfad_23" data-name="Pfad 23" d="M683.729,509.787l13.233-3.02h0a8.641,8.641,0,0,1,10.251,7l.059.29L685.607,519Z" transform="translate(-289.013 -300.155)" fill="#2f2e41"/>
  <path id="Pfad_24" data-name="Pfad 24" d="M621.563,297.136h4.374l2.081-17.855h-6.455Z" transform="translate(-176.834 -77.519)" fill="#ffb6b6"/>
  <path id="Pfad_25" data-name="Pfad 25" d="M750.31,519.632h8.613a5.656,5.656,0,0,1,5.489,5.809v.189h-14.1Z" transform="translate(-307.243 -303.016)" fill="#2f2e41"/>
  <path id="Pfad_26" data-name="Pfad 26" d="M594.563,297.136h4.374l2.081-17.855h-6.455Z" transform="translate(-169.153 -77.519)" fill="#ffb6b6"/>
  <path id="Pfad_27" data-name="Pfad 27" d="M723.31,519.632h8.613a5.656,5.656,0,0,1,5.489,5.809v.189h-14.1Z" transform="translate(-299.531 -303.016)" fill="#2f2e41"/>
  <path id="Pfad_28" data-name="Pfad 28" d="M780.967,293.557a5.27,5.27,0,0,0-3.061-4.857,4.768,4.768,0,0,0-5.412,1.13,5.484,5.484,0,0,0-1.089,5.724l-10.05,16.831L755.1,325.731l5.163,4.85,3.974-4.426,13-27.509a5.21,5.21,0,0,0,3.737-5.089Z" transform="translate(-309.721 -229.939)" fill="#ffb6b6"/>
  <path id="Pfad_29" data-name="Pfad 29" d="M717.664,357.072l-9.852-1.616-2.347,18.864-12.786,29.123a5.443,5.443,0,0,0-1.59,7.245,4.813,4.813,0,0,0,6.844,1.685,5.443,5.443,0,0,0,1.595-7.244L712.9,379.578Z" transform="translate(-291.234 -261.221)" fill="#ffb6b6"/>
  <path id="Pfad_30" data-name="Pfad 30" d="M728.346,393.163s-8.663,8.479-7.562,29.8L723.21,455.9l-.612,45.913,8.9-.74,7.774-76.944,7.451,31.547L744.047,497.7l8.571.211,9.006-47.492-2.135-35.2-3.586-22.05Z" transform="translate(-301.223 -277.51)" fill="#2f2e41"/>
  <path id="Pfad_31" data-name="Pfad 31" d="M736.83,336.5l-20.7,6.134,10.524,33.375-1.573,12.768,31.913.219-7.391-24.678s4.148-9.027-.588-15.355Z" transform="translate(-299.897 -255.325)" fill="#e4e4e4"/>
  <path id="Pfad_32" data-name="Pfad 32" d="M738.133,340.462l2.484-5.258s-.08-1.321,5.755-1.975l6.847-7.2,6.267,6.611L748.9,349.225Z" transform="translate(-304.427 -250.885)" fill="#e4e4e4"/>
  <path id="Pfad_33" data-name="Pfad 33" d="M723.191,347.708s-7.451-8.763-11.591-4.381-2.017,18.314-2.017,18.314l12.893,2.118Z" transform="translate(-295.46 -255.305)" fill="#e4e4e4"/>
  <path id="Ellipse_358" data-name="Ellipse 358" d="M728.72,310.061c12.689.06,12.688,20.482,0,20.54C716.03,330.541,716.031,310.119,728.72,310.061Z" transform="translate(-298.793 -246.322)" fill="#ffb6b6"/>
  <path id="Pfad_34" data-name="Pfad 34" d="M727.424,318.69a13.766,13.766,0,0,0,5.477,2.392,4.765,4.765,0,0,0,5.013-2.584,6.269,6.269,0,0,0,.388-2.1,14.464,14.464,0,0,0-3.338-10,11.652,11.652,0,0,0-9.178-4.107c-3.279.151-6.309,1.794-9.218,3.4-2.676,1.478-5.5,3.106-6.955,5.906-2.154,4.148-.584,9.227-.166,13.94a27.274,27.274,0,0,1-5.981,19.533l18.054,1.811a19.981,19.981,0,0,0,6.592-.071,10.816,10.816,0,0,0,7.848-7.873,11.594,11.594,0,0,0-2.837-11.044c-2.563-2.611-6.684-4.46-6.785-8.224" transform="translate(-295.681 -245.008)" fill="#2f2e41"/>
  <path id="Pfad_35" data-name="Pfad 35" d="M0,144.841,66.134,93.6l-.523,4.384-65.4,51.7Z" transform="translate(0 -27.58)" fill="#c20008"/>
  <path id="Ellipse_365" data-name="Ellipse 365" d="M544.2,644.758c18.236-.079,18.236,4.181,0,4.1C525.966,648.938,525.966,644.678,544.2,644.758Z" transform="translate(-245.27 -341.151)" fill="#f0f0f0"/>
  <path id="Ellipse_365-2" data-name="Ellipse 365" d="M223.2,642.758c18.236-.08,18.236,4.181,0,4.1C204.966,646.938,204.966,642.678,223.2,642.758Z" transform="translate(-143.764 -340.904)" fill="#f0f0f0"/>
  <path id="Ellipse_365-3" data-name="Ellipse 365" d="M839.2,557.758c18.236-.079,18.236,4.181,0,4.1C820.966,561.938,820.966,557.678,839.2,557.758Z" transform="translate(-330.12 -313.182)" fill="#f0f0f0"/>
  <path id="Pfad_36" data-name="Pfad 36" d="M839.056,553.652c.037-1.87-1.231-3.9-3-3.915a3.2,3.2,0,0,0-2.872,2.775,5.633,5.633,0,0,0,1.156,4.165,15.483,15.483,0,0,0,3.146,2.961l.312-1.2a3.559,3.559,0,0,1-.692.359A10.681,10.681,0,0,0,839.056,553.652Z" transform="translate(-330.056 -311.722)" fill="#f0f0f0"/>
  <path id="Pfad_37" data-name="Pfad 37" d="M838.768,559.569a4.105,4.105,0,0,0,.743-.651c-.2.043-.406.1-.611.141Z" transform="translate(-331.126 -313.065)" fill="#f0f0f0"/>
  <path id="Pfad_38" data-name="Pfad 38" d="M852.192,542.76a5.791,5.791,0,0,0-5.858-.964,7.326,7.326,0,0,0-4.124,4.62c-.639,2.011-.508,4.2-.818,6.292a7.722,7.722,0,0,1-1.727,4.043,38.385,38.385,0,0,0,9.181-3.2c2.116-1.059,4.305-2.517,5.04-4.869A5.821,5.821,0,0,0,852.192,542.76Z" transform="translate(-332.801 -310.115)" fill="#f0f0f0"/>
  <path id="Pfad_39" data-name="Pfad 39" d="M546.056,640.652c.037-1.87-1.231-3.9-3-3.915a3.2,3.2,0,0,0-2.872,2.775,5.632,5.632,0,0,0,1.156,4.165,15.474,15.474,0,0,0,3.146,2.961l.312-1.2a3.562,3.562,0,0,1-.691.359A10.689,10.689,0,0,0,546.056,640.652Z" transform="translate(-246.721 -340.159)" fill="#f0f0f0"/>
  <path id="Pfad_40" data-name="Pfad 40" d="M545.768,646.569a4.082,4.082,0,0,0,.743-.651c-.2.044-.406.1-.611.141Z" transform="translate(-248.01 -341.295)" fill="#f0f0f0"/>
  <path id="Pfad_41" data-name="Pfad 41" d="M559.192,629.76a5.791,5.791,0,0,0-5.858-.964,7.328,7.328,0,0,0-4.124,4.62c-.639,2.011-.507,4.2-.818,6.292a7.721,7.721,0,0,1-1.727,4.043,38.4,38.4,0,0,0,9.181-3.2c2.116-1.059,4.306-2.516,5.04-4.869A5.821,5.821,0,0,0,559.192,629.76Z" transform="translate(-249.098 -339.126)" fill="#f0f0f0"/>
  <path id="Pfad_42" data-name="Pfad 42" d="M225.056,638.652c.037-1.87-1.231-3.9-3-3.915a3.2,3.2,0,0,0-2.872,2.775,5.632,5.632,0,0,0,1.156,4.165,15.48,15.48,0,0,0,3.146,2.961l.312-1.2a3.553,3.553,0,0,1-.691.359A10.684,10.684,0,0,0,225.056,638.652Z" transform="translate(-145.419 -339.911)" fill="#f0f0f0"/>
  <path id="Pfad_43" data-name="Pfad 43" d="M224.768,644.569a4.089,4.089,0,0,0,.743-.651c-.2.044-.406.1-.611.141Z" transform="translate(-146.387 -341.047)" fill="#f0f0f0"/>
  <path id="Pfad_44" data-name="Pfad 44" d="M238.192,627.76a5.791,5.791,0,0,0-5.858-.964,7.326,7.326,0,0,0-4.123,4.619c-.639,2.011-.508,4.2-.818,6.292a7.721,7.721,0,0,1-1.727,4.043,38.383,38.383,0,0,0,9.181-3.2c2.116-1.059,4.306-2.517,5.04-4.869a5.821,5.821,0,0,0-1.693-5.918Z" transform="translate(-146.541 -338.879)" fill="#f0f0f0"/>
</svg>
