<svg xmlns="http://www.w3.org/2000/svg" width="230" height="45" viewBox="0 0 230 45">
  <g id="Logo-Hochschule-RheinMain" transform="translate(-19.306 -17.852)">
    <path id="Pfad_45" data-name="Pfad 45" d="M65.992,39.376,64.742,37.3a1.7,1.7,0,0,0-1.429-.787H46.332l2.741-4.559h0a1.566,1.566,0,0,0,.013-1.572l0,0L47.833,28.29a1.633,1.633,0,0,0-.652-.659,1.744,1.744,0,0,0-.922-.216h-2.5a1.7,1.7,0,0,0-1.421.8L39.6,32.77,31.111,18.651v0a1.694,1.694,0,0,0-1.405-.8H27.191a1.7,1.7,0,0,0-.922.218,1.672,1.672,0,0,0-.654.649L24.365,20.8a1.576,1.576,0,0,0,.009,1.58l8.489,14.123H22.254a1.706,1.706,0,0,0-1.432.787l-1.251,2.081a1.593,1.593,0,0,0-.266.872,1.555,1.555,0,0,0,.27.871l1.253,2.09h0a1.705,1.705,0,0,0,1.423.77v0H32.863L24.378,58.109a1.548,1.548,0,0,0-.011,1.574h0l1.251,2.089a1.737,1.737,0,0,0,.654.653,1.769,1.769,0,0,0,.922.213H29.7a1.7,1.7,0,0,0,1.408-.8h0L39.6,47.722l2.743,4.559a1.706,1.706,0,0,0,1.421.8h2.5a1.686,1.686,0,0,0,.917-.218,1.61,1.61,0,0,0,.654-.657l1.253-2.085h0a1.57,1.57,0,0,0-.013-1.574h0l-2.739-4.559H63.312v0a1.708,1.708,0,0,0,1.423-.77l1.253-2.09a1.555,1.555,0,0,0,.27-.871A1.592,1.592,0,0,0,65.992,39.376Z" transform="translate(0 0)" fill="#e30613"/>
    <g id="Gruppe_1" data-name="Gruppe 1" transform="translate(66.209 49.773)">
      <path id="Pfad_46" data-name="Pfad 46" d="M40.366,33.037h1.443V38.55H48.25V33.037H49.7V45.758H48.25V39.814H41.809v5.944H40.366Z" transform="translate(-40.366 -32.911)" fill="#57514d"/>
      <path id="Pfad_47" data-name="Pfad 47" d="M45.653,40.55V38.227a3.46,3.46,0,0,1,3.73-3.582,3.423,3.423,0,0,1,3.763,3.565v2.2a3.462,3.462,0,0,1-3.711,3.6C47.242,44.01,45.653,42.816,45.653,40.55Zm6.136-.092V38.087a2.17,2.17,0,0,0-2.406-2.318,2.194,2.194,0,0,0-2.393,2.388V40.51a2.211,2.211,0,0,0,2.445,2.358A2.141,2.141,0,0,0,51.789,40.458Z" transform="translate(-33.856 -30.932)" fill="#57514d"/>
      <path id="Pfad_48" data-name="Pfad 48" d="M49.87,40.388v-2a3.482,3.482,0,0,1,3.709-3.743c2.053,0,3.534,1.159,3.534,3.1v.231H55.827v-.3a1.987,1.987,0,0,0-2.229-1.93,2.278,2.278,0,0,0-2.355,2.519v2.157a2.2,2.2,0,0,0,2.373,2.445,1.959,1.959,0,0,0,2.212-1.909v-.253h1.286v.2c0,1.926-1.427,3.1-3.5,3.1A3.416,3.416,0,0,1,49.87,40.388Z" transform="translate(-28.664 -30.932)" fill="#57514d"/>
      <path id="Pfad_49" data-name="Pfad 49" d="M54.062,33.029h1.32v5.334h.052a3.235,3.235,0,0,1,2.892-1.748A2.692,2.692,0,0,1,61.2,39.575v6.193H59.86V40.076c0-1.591-.747-2.3-1.946-2.3a2.532,2.532,0,0,0-2.532,2.711v5.282h-1.32V33.029Z" transform="translate(-23.504 -32.92)" fill="#57514d"/>
      <path id="Pfad_50" data-name="Pfad 50" d="M58.182,42.585l.909-.749A3.564,3.564,0,0,0,61.8,42.942c1.07,0,2.177-.554,2.177-1.6,0-1-.623-1.286-1.857-1.517l-1.033-.214c-1.554-.305-2.517-1.02-2.517-2.305,0-1.551,1.266-2.676,3.212-2.676a3.918,3.918,0,0,1,3.122,1.124l-.911.7a3.24,3.24,0,0,0-2.284-.785c-1.089,0-1.839.588-1.839,1.443s.732,1.142,1.946,1.395l1.34.283c1.318.288,2.192,1,2.192,2.318,0,1.948-1.8,2.911-3.532,2.911A4.488,4.488,0,0,1,58.182,42.585Z" transform="translate(-18.431 -30.953)" fill="#57514d"/>
      <path id="Pfad_51" data-name="Pfad 51" d="M62.205,40.388v-2a3.484,3.484,0,0,1,3.711-3.743c2.053,0,3.534,1.159,3.534,3.1v.231H68.165v-.3a1.988,1.988,0,0,0-2.231-1.93,2.276,2.276,0,0,0-2.353,2.519v2.157a2.2,2.2,0,0,0,2.371,2.445,1.96,1.96,0,0,0,2.214-1.909v-.253H69.45v.2c0,1.926-1.429,3.1-3.5,3.1A3.416,3.416,0,0,1,62.205,40.388Z" transform="translate(-13.476 -30.932)" fill="#57514d"/>
      <path id="Pfad_52" data-name="Pfad 52" d="M66.4,33.029h1.32v5.334h.052a3.23,3.23,0,0,1,2.889-1.748,2.692,2.692,0,0,1,2.872,2.959v6.193H72.193V40.076c0-1.591-.749-2.3-1.944-2.3a2.532,2.532,0,0,0-2.532,2.711v5.282H66.4Z" transform="translate(-8.314 -32.92)" fill="#57514d"/>
      <path id="Pfad_53" data-name="Pfad 53" d="M70.765,40.913V34.725H72.1v5.687c0,1.591.767,2.283,1.963,2.283a2.529,2.529,0,0,0,2.515-2.711v-5.26H77.9V43.68H76.615V42.125H76.58a3.252,3.252,0,0,1-2.946,1.769A2.716,2.716,0,0,1,70.765,40.913Z" transform="translate(-2.937 -30.833)" fill="#57514d"/>
      <path id="Pfad_54" data-name="Pfad 54" d="M75.2,43.571V33.029h1.338V43.624a1.026,1.026,0,0,0,1.159,1.107,8.559,8.559,0,0,0,.981-.087v1.015a5.015,5.015,0,0,1-1.43.214C75.533,45.872,75.2,44.609,75.2,43.571Z" transform="translate(2.521 -32.92)" fill="#57514d"/>
      <path id="Pfad_55" data-name="Pfad 55" d="M77.428,40.371V38.479a3.612,3.612,0,0,1,3.835-3.835,3.3,3.3,0,0,1,3.552,3.512v1.407H78.8v.928a2.308,2.308,0,0,0,2.571,2.375,2.861,2.861,0,0,0,2.266-1.142l1.015.606A3.792,3.792,0,0,1,81.28,44.01C79.088,44.01,77.428,42.833,77.428,40.371Zm6.066-1.73v-.519a2.183,2.183,0,0,0-2.3-2.375,2.345,2.345,0,0,0-2.392,2.5v.392h4.693Z" transform="translate(5.267 -30.932)" fill="#57514d"/>
      <path id="Pfad_56" data-name="Pfad 56" d="M84.061,33.037H89.09c2.392,0,4.319,1.39,4.319,4a3.806,3.806,0,0,1-2.515,3.691l3.155,5.033H91.465l-2.981-4.763H86.431v4.763H84.061Zm4.746,5.958c1.373,0,2.283-.658,2.283-1.978,0-1.5-1-1.983-2.318-1.983h-2.34v3.961Z" transform="translate(13.434 -32.911)" fill="#57514d"/>
      <path id="Pfad_57" data-name="Pfad 57" d="M89.34,33.037h2.175v4.711h.056a3.036,3.036,0,0,1,2.515-1.3c2.053,0,3.194,1.281,3.194,3.46v5.853H95.1v-5.3c0-1.373-.588-2.1-1.7-2.1-1.194,0-1.891.732-1.891,2.283v5.121H89.34V33.037Z" transform="translate(19.934 -32.911)" fill="#57514d"/>
      <path id="Pfad_58" data-name="Pfad 58" d="M93.836,40.351V38.569a3.907,3.907,0,0,1,4.192-4c1.979,0,3.944,1.159,3.944,3.587v1.765H96.1v.5a1.9,1.9,0,0,0,2.1,1.835,2.557,2.557,0,0,0,1.978-1.177l1.678.963A3.944,3.944,0,0,1,98.1,44.081C95.854,44.081,93.836,42.848,93.836,40.351Zm5.958-1.943v-.249a1.638,1.638,0,0,0-1.765-1.752A1.775,1.775,0,0,0,96.1,38.281v.127h3.691Z" transform="translate(25.47 -31.021)" fill="#57514d"/>
      <path id="Pfad_59" data-name="Pfad 59" d="M98.484,32.98h2.175V35.3H98.484Zm0,3.713h2.175v9.134H98.484Z" transform="translate(31.193 -32.98)" fill="#57514d"/>
      <path id="Pfad_60" data-name="Pfad 60" d="M100.637,34.743h2.122v1.124h.035a3.07,3.07,0,0,1,2.584-1.3c2.053,0,3.195,1.281,3.195,3.46v5.853H106.4v-5.3c0-1.373-.588-2.1-1.7-2.1-1.194,0-1.891.732-1.891,2.283v5.121h-2.175Z" transform="translate(33.844 -31.03)" fill="#57514d"/>
      <path id="Pfad_61" data-name="Pfad 61" d="M105.531,33.037h2.894l3.282,7.958h.035l3.194-7.958h2.889V45.758h-2.283V37.282h-.035l-2.89,7.012h-1.874l-2.889-6.977h-.039v8.441h-2.283V33.037Z" transform="translate(39.87 -32.911)" fill="#57514d"/>
      <path id="Pfad_62" data-name="Pfad 62" d="M112,41.289c0-1.765,1.6-2.82,3.373-2.82H117.8v-.837c0-.963-.641-1.373-1.748-1.373-.946,0-1.639.318-1.639.906v.322h-1.966V37.24c0-2,1.909-2.676,3.622-2.676,2.035,0,3.909.675,3.909,2.907v4.441a10.249,10.249,0,0,0,.161,1.965h-2.162c-.035-.144-.07-.7-.087-.841h-.035a3.15,3.15,0,0,1-2.676,1.02C113.289,44.056,112,43.019,112,41.289Zm5.8-.785V40.06h-2.14c-.928,0-1.534.318-1.534,1.12,0,.767.623,1.164,1.643,1.164C117.517,42.343,117.8,41.485,117.8,40.5Z" transform="translate(47.84 -31.03)" fill="#57514d"/>
      <path id="Pfad_63" data-name="Pfad 63" d="M116.717,32.98h2.175V35.3h-2.175Zm0,3.713h2.175v9.134h-2.175Z" transform="translate(53.643 -32.98)" fill="#57514d"/>
      <path id="Pfad_64" data-name="Pfad 64" d="M118.867,34.743h2.122v1.124h.039a3.07,3.07,0,0,1,2.584-1.3c2.053,0,3.195,1.281,3.195,3.46v5.853h-2.175v-5.3c0-1.373-.593-2.1-1.7-2.1-1.2,0-1.891.732-1.891,2.283v5.121h-2.179Z" transform="translate(56.29 -31.03)" fill="#57514d"/>
    </g>
  </g>
</svg>
